<svg xmlns="http://www.w3.org/2000/svg" width="86" height="32" viewBox="0 0 86 32" fill="none">
<g id="homepage-logo.3372a385 3" clip-path="url(#clip0_1_1260)">
<path id="Vector" opacity="0.01" d="M85.76 0H0V32H85.76V0Z" fill="white"/>
<path id="Vector_2" d="M19.1207 28.7513C17.5274 30.079 15.7383 31.1525 13.8374 31.9153C13.5299 32.0283 13.1944 32.0283 12.9149 31.9153C11.014 31.1243 9.22494 30.0507 7.63152 28.7513L12.8869 26.5478C13.1944 26.4348 13.5299 26.4348 13.8374 26.5478L19.1207 28.7513ZM13.8374 17.7338C13.5299 17.6208 13.1944 17.6208 12.8869 17.7338L2.3202 22.1691C3.13088 23.7511 4.13723 25.2201 5.33927 26.5478L12.7472 23.4403C13.1385 23.2708 13.6137 23.2708 14.0051 23.4403L21.413 26.5478C22.5871 25.2201 23.6213 23.7511 24.432 22.1691L13.8374 17.7338ZM25.9695 14.0049L13.8374 8.91987C13.5299 8.80687 13.1944 8.80687 12.8869 8.91987L0.754767 14.0049C0 14.3333 0.111817 14.3333 0.111817 14.6546C0.279543 16.2931 0.642949 17.9316 1.17408 19.4853L12.7472 14.6263C13.1385 14.4569 13.6137 14.4569 14.0051 14.6263L25.5782 19.4853C26.1093 17.9316 26.4727 16.2931 26.6404 14.6546C26.5006 14.3439 26.277 14.1179 25.9695 14.0049ZM26.5286 5.64291C26.5006 5.58641 26.4727 5.55815 26.4168 5.50165L26.3609 5.44515C26.2491 5.33215 26.1093 5.24741 25.9695 5.19091L13.8374 0.105937C13.5299 -0.0353122 13.1944 -0.0353122 12.8869 0.105937L0.754767 5.19091C0.698858 5.21915 0.642949 5.24741 0.58704 5.27566C0.503177 5.33215 0.447269 5.38865 0.363405 5.44515C0.335452 5.47341 0.279543 5.52991 0.251589 5.58641C0.223634 5.64291 0.223634 5.61465 0.223634 5.64291C0.0838627 5.84065 0 6.0949 0 6.34915V11.1799L12.7472 5.84065C13.1385 5.67115 13.6137 5.67115 14.0051 5.84065L26.7522 11.1799V6.34915C26.7522 6.0949 26.6684 5.84065 26.5286 5.64291Z" fill="url(#paint0_linear_1_1260)"/>
<path id="Vector_3" d="M50.9607 14.8236L50.2618 20.5582C50.2618 20.7278 50.1221 20.8408 49.9544 20.8125H48.1373C47.9416 20.8125 47.8578 20.7278 47.8857 20.5582L48.5846 14.8236C48.6405 14.541 48.6684 14.2303 48.6684 13.9196C48.6684 13.6653 48.6125 13.4393 48.4728 13.2133C48.2771 12.9873 47.9416 12.846 47.4384 12.846C46.6837 12.8743 45.9289 12.959 45.2021 13.1568L44.3076 20.53C44.3076 20.6995 44.1678 20.8125 44 20.7842H42.211C42.0153 20.7842 41.9594 20.6995 41.9594 20.53L42.6583 14.8518C42.7142 14.541 42.7421 14.2303 42.7421 13.9196C42.7701 13.6653 42.6862 13.411 42.5744 13.2133C42.4067 12.9873 42.0712 12.8743 41.568 12.8743C40.7853 12.9026 40.0305 12.9873 39.2758 13.185L38.3812 20.5582C38.3812 20.7278 38.2415 20.8408 38.0738 20.8125H36.2847C36.117 20.8125 36.0052 20.756 36.0331 20.5582L36.9556 12.8743C37.0394 12.2246 37.3749 11.9703 38.4092 11.6878C39.5833 11.4053 40.7854 11.2358 42.0153 11.2358C43.1335 11.2358 43.8603 11.49 44.3076 11.8573C45.4816 11.4618 46.7396 11.264 47.9696 11.2358C49.0318 11.2358 49.8146 11.3488 50.3737 11.7443C50.9327 12.1398 51.1004 12.6483 51.1004 13.5523C51.0725 13.9478 51.0166 14.3716 50.9607 14.8236Z" fill="#202027"/>
<path id="Vector_4" d="M60.7167 17.8745C60.2135 19.7955 59.0953 21.0385 56.5515 21.0385C55.7409 21.0385 54.9022 20.9538 54.1195 20.7278L54.1754 21.8295L53.9238 23.8917C53.9238 24.0895 53.784 24.2307 53.5884 24.259L51.8552 24.5697C51.6316 24.598 51.5198 24.5132 51.5477 24.2872L52.8895 13.2416C52.9734 12.3093 53.3367 12.055 54.1474 11.8008C55.3495 11.4336 56.5795 11.2358 57.8095 11.2358C59.1233 11.2358 59.934 11.5183 60.4651 12.0833C60.9962 12.6483 61.1919 13.4393 61.1919 14.428C61.1919 15.5863 61.0242 16.7445 60.7167 17.8745ZM58.4804 13.3828C58.2288 12.959 57.7815 12.8743 57.0826 12.8743C56.4397 12.9026 55.8247 12.9873 55.2097 13.1568L54.5109 19.174C55.042 19.3152 55.6011 19.3718 56.1602 19.4C57.474 19.4 58.089 18.9762 58.4804 17.2813C58.676 16.462 58.7879 15.5863 58.7879 14.7388C58.7599 14.0608 58.704 13.6653 58.4804 13.3828Z" fill="#202027"/>
<path id="Vector_5" d="M70.8641 14.7388L70.333 18.948C70.1932 20.2758 69.6898 20.53 68.4879 20.8125C67.6771 20.982 66.8386 21.0668 66.0002 21.0668C65.0217 21.0668 63.9315 21.0102 63.1488 20.5582C62.5338 20.2192 62.1145 19.626 62.1145 18.609C62.1145 17.7615 62.3102 16.8575 62.8413 16.236C63.4563 15.5298 64.3788 15.3885 65.3013 15.2473L68.5162 14.7388L68.5716 14.1738C68.6 14.1173 68.6 14.0326 68.6 13.9478V13.7218C68.6277 13.4393 68.4601 13.185 68.2088 13.1003C67.7892 12.959 67.342 12.9026 66.8947 12.9308C65.6647 12.9308 64.4347 13.298 63.7917 13.4393C63.7638 13.4676 63.7358 13.4676 63.7079 13.4676H63.652C63.5681 13.4676 63.5122 13.411 63.4842 13.298L63.3724 12.1963C63.3444 11.9703 63.5122 11.9138 63.596 11.8573C64.882 11.4618 66.1961 11.264 67.5379 11.2358C68.8236 11.2358 69.606 11.4053 70.1371 11.7443C70.7803 12.1116 70.9762 12.6766 70.9762 13.3828C70.9762 13.8066 70.9201 14.2586 70.8641 14.7388ZM66.0839 16.6033C65.5249 16.688 65.0497 16.7445 64.7702 17.2248C64.6024 17.5355 64.4906 17.9028 64.5186 18.27C64.4906 18.6372 64.6583 19.0045 64.9658 19.2022C65.3293 19.4848 65.8324 19.4848 66.3076 19.4848C66.867 19.4848 67.4258 19.4 67.9568 19.2305L68.3203 16.2643L66.0839 16.6033Z" fill="#202027"/>
<path id="Vector_6" d="M77.1536 21.9147C76.455 23.5815 75.7557 24.5419 73.5477 24.5419C73.0167 24.5702 72.4573 24.5137 71.9262 24.4289C71.7587 24.3724 71.6465 24.3442 71.7026 24.1465L71.8424 23.1295C71.8701 22.9599 71.8985 22.8187 72.1776 22.8187C72.2336 22.8187 72.8208 22.8752 73.212 22.8752C74.1349 22.8752 74.6098 22.6209 74.9456 21.8017L75.3085 20.8412H74.1626C73.995 20.8412 73.9112 20.7565 73.8552 20.5587L72.3174 11.886C72.2897 11.7165 72.4012 11.547 72.5694 11.4905C72.5971 11.4905 72.6248 11.4905 72.6532 11.4905H74.4139C74.5821 11.4623 74.722 11.6035 74.7497 11.773L75.728 19.3157H76.1753L78.8028 11.8013C78.8589 11.6317 79.0265 11.4905 79.2224 11.4905H81.0392C81.1514 11.4623 81.2912 11.547 81.2912 11.6883C81.2912 11.7165 81.2912 11.7165 81.2912 11.7447C81.2912 11.8013 81.2912 11.8295 81.2628 11.886L77.1536 21.9147Z" fill="#202027"/>
</g>
<defs>
<linearGradient id="paint0_linear_1_1260" x1="0" y1="16" x2="26.7522" y2="16" gradientUnits="userSpaceOnUse">
<stop stop-color="#4193CF"/>
<stop offset="1" stop-color="#68E2FB"/>
</linearGradient>
<clipPath id="clip0_1_1260">
<rect width="85.76" height="32" fill="white"/>
</clipPath>
</defs>
</svg>