<svg width="35" height="35" viewBox="0 0 35 35" fill="none" xmlns="http://www.w3.org/2000/svg">
<rect width="35" height="35" rx="4" fill="#D9D9D9"/>
<path d="M15.1668 24.3553H18.8335C18.9551 24.3553 19.0716 24.307 19.1576 24.221C19.2435 24.1351 19.2918 24.0185 19.2918 23.8969C19.2918 23.7754 19.2435 23.6588 19.1576 23.5728C19.0716 23.4869 18.9551 23.4386 18.8335 23.4386H15.1668C15.0453 23.4386 14.9287 23.4869 14.8427 23.5728C14.7568 23.6588 14.7085 23.7754 14.7085 23.8969C14.7085 24.0185 14.7568 24.1351 14.8427 24.221C14.9287 24.307 15.0453 24.3553 15.1668 24.3553Z" fill="black"/>
<path d="M21.3332 27.1089H12.667C12.0919 27.0746 11.5536 26.8146 11.1693 26.3854C10.7849 25.9562 10.5855 25.3926 10.6146 24.8173V11.1827C10.5855 10.6074 10.7849 10.0438 11.1693 9.61459C11.5536 9.18542 12.0919 8.92539 12.667 8.89108H21.3332C21.9083 8.92539 22.4466 9.18542 22.831 9.61459C23.2153 10.0438 23.4147 10.6074 23.3856 11.1827V24.8173C23.4147 25.3926 23.2153 25.9562 22.831 26.3854C22.4466 26.8146 21.9083 27.0746 21.3332 27.1089ZM12.667 9.80775C12.3354 9.84277 12.0308 10.0064 11.8185 10.2634C11.6062 10.5205 11.503 10.8505 11.5313 11.1827V24.8173C11.503 25.1495 11.6062 25.4795 11.8185 25.7366C12.0308 25.9936 12.3354 26.1572 12.667 26.1923H21.3332C21.6648 26.1572 21.9694 25.9936 22.1817 25.7366C22.3941 25.4795 22.4972 25.1495 22.4689 24.8173V11.1827C22.4972 10.8505 22.3941 10.5205 22.1817 10.2634C21.9694 10.0064 21.6648 9.84277 21.3332 9.80775H12.667Z" fill="black"/>
</svg>
