<svg width="26" height="26" viewBox="0 0 26 26" fill="none" xmlns="http://www.w3.org/2000/svg">
<path d="M4.33334 2.16666C3.73504 2.16666 3.25001 2.65169 3.25001 3.24999V5.41666H5.41667V4.33332H20.5833V21.6667H5.41667V20.5833H3.25001V22.75C3.25001 23.3483 3.73504 23.8333 4.33334 23.8333H21.6667C22.265 23.8333 22.75 23.3483 22.75 22.75V3.24999C22.75 2.65169 22.265 2.16666 21.6667 2.16666H4.33334ZM9.75001 17.3333C9.75001 15.5383 11.205 14.0833 13 14.0833C14.795 14.0833 16.25 15.5383 16.25 17.3333H9.75001ZM13 13C11.8034 13 10.8333 12.03 10.8333 10.8333C10.8333 9.6367 11.8034 8.66666 13 8.66666C14.1967 8.66666 15.1667 9.6367 15.1667 10.8333C15.1667 12.03 14.1967 13 13 13ZM6.50001 9.74999V7.58332H2.16667V9.74999H6.50001ZM6.50001 11.9167V14.0833H2.16667V11.9167H6.50001ZM6.50001 18.4167V16.25H2.16667V18.4167H6.50001Z" fill="black"/>
</svg>
