<svg width="35" height="35" viewBox="0 0 35 35" fill="none" xmlns="http://www.w3.org/2000/svg">
<rect width="35" height="35" rx="4" fill="#D9D9D9"/>
<g clip-path="url(#clip0_3020_77)">
<path d="M16.4605 24.7175C12.4875 18.9579 11.75 18.3668 11.75 16.25C11.75 13.3505 14.1005 11 17 11C19.8995 11 22.25 13.3505 22.25 16.25C22.25 18.3668 21.5125 18.9579 17.5395 24.7175C17.2788 25.0942 16.7211 25.0941 16.4605 24.7175ZM17 18.4375C18.2081 18.4375 19.1875 17.4581 19.1875 16.25C19.1875 15.0419 18.2081 14.0625 17 14.0625C15.7919 14.0625 14.8125 15.0419 14.8125 16.25C14.8125 17.4581 15.7919 18.4375 17 18.4375Z" fill="black"/>
</g>
<defs>
<clipPath id="clip0_3020_77">
<rect width="14" height="14" fill="white" transform="translate(10 11)"/>
</clipPath>
</defs>
</svg>
