<svg width="35" height="35" viewBox="0 0 35 35" fill="none" xmlns="http://www.w3.org/2000/svg">
<rect width="35" height="35" rx="4" fill="#D9D9D9"/>
<path d="M25.3929 11H9.60714C9.27132 11 9 11.2844 9 11.6364V24.3636C9 24.7156 9.27132 25 9.60714 25H25.3929C25.7287 25 26 24.7156 26 24.3636V11.6364C26 11.2844 25.7287 11 25.3929 11ZM23.8598 13.1656L17.8738 18.0477C17.7258 18.169 17.519 18.169 17.371 18.0477L11.383 13.1656C11.3605 13.1474 11.3439 13.1222 11.3357 13.0935C11.3275 13.0649 11.328 13.0343 11.3372 13.0061C11.3464 12.9778 11.3638 12.9532 11.387 12.9358C11.4102 12.9184 11.438 12.9091 11.4665 12.9091H23.7763C23.8049 12.9091 23.8327 12.9184 23.8558 12.9358C23.879 12.9532 23.8965 12.9778 23.9057 13.0061C23.9149 13.0343 23.9154 13.0649 23.9072 13.0935C23.8989 13.1222 23.8824 13.1474 23.8598 13.1656Z" fill="black"/>
</svg>
