<svg width="59" height="59" viewBox="0 0 59 59" fill="none" xmlns="http://www.w3.org/2000/svg">
<circle cx="29.5" cy="29.5" r="29.5" fill="#B7A261"/>
<path d="M29 17C26.4288 17 23.9154 17.7624 21.7776 19.1909C19.6398 20.6194 17.9735 22.6497 16.9896 25.0251C16.0056 27.4006 15.7482 30.0144 16.2498 32.5362C16.7514 35.0579 17.9895 37.3743 19.8076 39.1924C21.6257 41.0105 23.9421 42.2486 26.4638 42.7502C28.9856 43.2518 31.5994 42.9944 33.9749 42.0104C36.3503 41.0265 38.3806 39.3602 39.8091 37.2224C41.2376 35.0846 42 32.5712 42 30C42 29.3356 41.9422 28.6711 41.8556 28.0356C41.1338 29.0476 40.1802 29.8721 39.0744 30.44C37.9687 31.008 36.7431 31.3029 35.5 31.3C33.8464 31.3 32.2355 30.7748 30.8997 29.8002C29.5639 28.8255 28.5722 27.4517 28.0677 25.877C27.5631 24.3023 27.5718 22.608 28.0924 21.0385C28.613 19.469 29.6187 18.1054 30.9644 17.1444C30.3289 17.0578 29.6644 17 29 17Z" fill="black"/>
</svg>
