<svg width="34" height="34" viewBox="0 0 34 34" fill="none" xmlns="http://www.w3.org/2000/svg">
<rect x="0.5" y="0.5" width="33" height="33" rx="4.5" stroke="#E77975"/>
<path d="M17.0004 12.092C14.1185 12.092 11.7927 14.5073 11.7927 17.5C11.7927 20.4926 14.1185 22.9079 17.0004 22.9079C19.8822 22.9079 22.208 20.4926 22.208 17.5C22.208 14.5073 19.8822 12.092 17.0004 12.092ZM17.0004 21.0147C15.1367 21.0147 13.6158 19.4353 13.6158 17.5C13.6158 15.5646 15.1367 13.9852 17.0004 13.9852C18.864 13.9852 20.3849 15.5646 20.3849 17.5C20.3849 19.4353 18.864 21.0147 17.0004 21.0147ZM22.4213 10.6102C21.7484 10.6102 21.2051 11.1745 21.2051 11.8732C21.2051 12.5719 21.7484 13.1362 22.4213 13.1362C23.0941 13.1362 23.6375 12.5746 23.6375 11.8732C23.6377 11.7073 23.6064 11.543 23.5453 11.3896C23.4843 11.2363 23.3947 11.097 23.2817 10.9797C23.1687 10.8623 23.0346 10.7693 22.8869 10.7059C22.7393 10.6425 22.581 10.61 22.4213 10.6102ZM27.1515 17.5C27.1515 16.0445 27.1642 14.6022 27.0855 13.1494C27.0068 11.4619 26.6361 9.96421 25.4478 8.73023C24.257 7.49361 22.8174 7.11128 21.1924 7.02954C19.7908 6.94781 18.4019 6.96099 17.0029 6.96099C15.6013 6.96099 14.2125 6.94781 12.8135 7.02954C11.1885 7.11128 9.74626 7.49624 8.55798 8.73023C7.36716 9.96685 6.999 11.4619 6.92029 13.1494C6.84158 14.6048 6.85427 16.0471 6.85427 17.5C6.85427 18.9528 6.84158 20.3977 6.92029 21.8505C6.999 23.538 7.3697 25.0357 8.55798 26.2697C9.7488 27.5063 11.1885 27.8886 12.8135 27.9704C14.215 28.0521 15.6039 28.0389 17.0029 28.0389C18.4045 28.0389 19.7933 28.0521 21.1924 27.9704C22.8174 27.8886 24.2595 27.5037 25.4478 26.2697C26.6386 25.0331 27.0068 23.538 27.0855 21.8505C27.1668 20.3977 27.1515 18.9554 27.1515 17.5ZM24.9172 23.7173C24.7318 24.1972 24.5084 24.5558 24.1504 24.925C23.7924 25.2967 23.4496 25.5288 22.9875 25.7212C21.6519 26.2723 18.4806 26.1484 17.0004 26.1484C15.5201 26.1484 12.3463 26.2723 11.0107 25.7239C10.5486 25.5314 10.2033 25.2994 9.84783 24.9276C9.48982 24.5558 9.26638 24.1999 9.08103 23.72C8.5529 22.3304 8.67224 19.0372 8.67224 17.5C8.67224 15.9627 8.5529 12.6668 9.08103 11.2799C9.26638 10.8001 9.48982 10.4415 9.84783 10.0723C10.2058 9.70318 10.5486 9.46851 11.0107 9.27603C12.3463 8.72759 15.5201 8.85152 17.0004 8.85152C18.4806 8.85152 21.6545 8.72759 22.99 9.27603C23.4521 9.46851 23.7974 9.70054 24.1529 10.0723C24.5109 10.4441 24.7343 10.8001 24.9197 11.2799C25.4478 12.6668 25.3285 15.9627 25.3285 17.5C25.3285 19.0372 25.4478 22.3304 24.9172 23.7173Z" fill="#E77975"/>
</svg>
