<svg width="59" height="59" viewBox="0 0 59 59" fill="none" xmlns="http://www.w3.org/2000/svg">
<circle cx="29.5" cy="29.5" r="29.5" fill="#B7A261"/>
<path d="M20 26.7502C20 25.1402 20.3884 23.5552 21.1306 22.1368C21.8729 20.7184 22.9458 19.5107 24.2536 18.6216C25.5615 17.7325 27.0635 17.1896 28.6256 17.0414C30.1877 16.8932 31.7612 17.1443 33.2057 17.7723C34.6502 18.4004 35.9206 19.3857 36.9036 20.6405C37.8866 21.8952 38.5516 23.3802 38.8391 24.963C39.1266 26.5457 39.0277 28.1769 38.5513 29.7108C38.0749 31.2448 37.2358 32.6338 36.1088 33.7539C35.7874 34.0724 35.5404 34.4039 35.3916 34.7597L34.1851 37.6343C34.1239 37.78 34.0224 37.9041 33.8933 37.9913C33.7641 38.0785 33.6129 38.125 33.4583 38.1251H25.5417C25.3868 38.1253 25.2353 38.079 25.1058 37.9918C24.9764 37.9045 24.8747 37.7803 24.8133 37.6343L23.6084 34.7581C23.4346 34.379 23.1911 34.038 22.8912 33.7539C21.9751 32.846 21.2469 31.7578 20.7502 30.5544C20.2534 29.351 19.9982 28.0571 20 26.7502ZM24.75 40.5625C24.75 40.347 24.8334 40.1404 24.9819 39.988C25.1303 39.8356 25.3317 39.75 25.5417 39.75H33.4583C33.6683 39.75 33.8697 39.8356 34.0181 39.988C34.1666 40.1404 34.25 40.347 34.25 40.5625C34.25 40.778 34.1666 40.9847 34.0181 41.137C33.8697 41.2894 33.6683 41.375 33.4583 41.375L33.1037 42.1014C32.9723 42.3713 32.7703 42.5983 32.5203 42.757C32.2703 42.9157 31.9821 42.9998 31.6882 43H27.3118C27.0179 42.9998 26.7298 42.9157 26.4798 42.757C26.2298 42.5983 26.0277 42.3713 25.8963 42.1014L25.5417 41.375C25.3317 41.375 25.1303 41.2894 24.9819 41.137C24.8334 40.9847 24.75 40.778 24.75 40.5625Z" fill="white"/>
</svg>