<svg width="34" height="34" viewBox="0 0 34 34" fill="none" xmlns="http://www.w3.org/2000/svg">
<path d="M25.6667 7.25H8.33333C8.04602 7.25 7.77047 7.36414 7.5673 7.5673C7.36414 7.77047 7.25 8.04602 7.25 8.33333V25.6667C7.25 25.954 7.36414 26.2295 7.5673 26.4327C7.77047 26.6359 8.04602 26.75 8.33333 26.75H25.6667C25.954 26.75 26.2295 26.6359 26.4327 26.4327C26.6359 26.2295 26.75 25.954 26.75 25.6667V8.33333C26.75 8.04602 26.6359 7.77047 26.4327 7.5673C26.2295 7.36414 25.954 7.25 25.6667 7.25ZM13.0339 23.8651H10.1392V14.5592H13.0339V23.8651ZM11.5866 13.2885C11.1418 13.2885 10.7153 13.1118 10.4008 12.7973C10.0863 12.4828 9.90958 12.0563 9.90958 11.6115C9.90958 11.1667 10.0863 10.7402 10.4008 10.4257C10.7153 10.1112 11.1418 9.9345 11.5866 9.9345C12.0314 9.9345 12.4579 10.1112 12.7724 10.4257C13.0869 10.7402 13.2636 11.1667 13.2636 11.6115C13.2636 12.0563 13.0869 12.4828 12.7724 12.7973C12.4579 13.1118 12.0314 13.2885 11.5866 13.2885ZM23.8662 23.8651H20.9748V19.34C20.9748 18.261 20.9553 16.8733 19.4711 16.8733C17.9653 16.8733 17.7367 18.0498 17.7367 19.2642V23.8662H14.8474V14.5603H17.6208V15.8322H17.6608C18.0454 15.1009 18.9901 14.3296 20.3952 14.3296C23.3245 14.3296 23.8651 16.2558 23.8651 18.7626L23.8662 23.8651Z" fill="#3662E3"/>
<rect x="0.5" y="0.5" width="33" height="33" rx="4.5" stroke="#3662E3"/>
</svg>
