<svg width="29" height="29" viewBox="0 0 29 29" fill="none" xmlns="http://www.w3.org/2000/svg">
<path d="M2.9 7.25001C2.9 5.65047 4.20047 4.35001 5.8 4.35001H23.2C24.7995 4.35001 26.1 5.65047 26.1 7.25001V18.85H23.2V7.25001H5.8V18.85H2.9V7.25001ZM0 21.17C0 20.6897 0.389688 20.3 0.87 20.3H28.13C28.6103 20.3 29 20.6897 29 21.17C29 23.0913 27.4413 24.65 25.52 24.65H3.48C1.55875 24.65 0 23.0913 0 21.17ZM12.7328 12.3703L11.3281 13.775L12.7328 15.1797C13.1588 15.6056 13.1588 16.2944 12.7328 16.7158C12.3069 17.1372 11.6181 17.1417 11.1967 16.7158L9.02172 14.5408C8.59578 14.1149 8.59578 13.4261 9.02172 13.0047L11.1967 10.8297C11.6227 10.4038 12.3114 10.4038 12.7328 10.8297C13.1542 11.2556 13.1588 11.9444 12.7328 12.3658V12.3703ZM17.8078 10.8297L19.9828 13.0047C20.4088 13.4306 20.4088 14.1194 19.9828 14.5408L17.8078 16.7158C17.3819 17.1417 16.6931 17.1417 16.2717 16.7158C15.8503 16.2899 15.8458 15.6011 16.2717 15.1797L17.6764 13.775L16.2717 12.3703C15.8458 11.9444 15.8458 11.2556 16.2717 10.8342C16.6977 10.4128 17.3864 10.4083 17.8078 10.8342V10.8297Z" fill="black"/>
</svg>
