<svg xmlns="http://www.w3.org/2000/svg" version="1.1" width="600" height="360">
<path d="M0 0 C198 0 396 0 600 0 C600 118.8 600 237.6 600 360 C402 360 204 360 0 360 C0 241.2 0 122.4 0 0 Z " fill="#D72027" transform="translate(0,0)"/>
<path d="M0 0 C89.1 0 178.2 0 270 0 C270 47.19 270 94.38 270 143 C180.9 143 91.8 143 0 143 C0 95.81 0 48.62 0 0 Z " fill="#F4F6F5" transform="translate(330,217)"/>
<path d="M0 0 C89.1 0 178.2 0 270 0 C270 47.19 270 94.38 270 143 C180.9 143 91.8 143 0 143 C0 95.81 0 48.62 0 0 Z " fill="#F4F7F6" transform="translate(330,0)"/>
<path d="M0 0 C88.77 0 177.54 0 269 0 C269 47.19 269 94.38 269 143 C180.23 143 91.46 143 0 143 C0 95.81 0 48.62 0 0 Z " fill="#F4F7F6" transform="translate(0,217)"/>
<path d="M0 0 C88.77 0 177.54 0 269 0 C269 47.19 269 94.38 269 143 C180.23 143 91.46 143 0 143 C0 95.81 0 48.62 0 0 Z " fill="#F4F8F6" transform="translate(0,0)"/>
<path d="M0 0 C0 36.3 0 72.6 0 110 C-60.39 110 -120.78 110 -183 110 C-179.27242327 107.01793862 -175.98678511 104.70106811 -171.90625 102.34765625 C-171.32674088 102.01134689 -170.74723175 101.67503754 -170.15016174 101.32853699 C-168.91118998 100.60962795 -167.67125951 99.89236899 -166.43045044 99.17663574 C-163.14440214 97.28013336 -159.86662144 95.36949598 -156.58984375 93.45703125 C-155.93576035 93.07533783 -155.28167694 92.69364441 -154.60777283 92.30038452 C-149.03628937 89.0398325 -143.5351345 85.67391283 -138.0625 82.25 C-131.24200444 77.98612283 -124.37397467 73.82262018 -117.4375 69.75 C-109.12020055 64.86654327 -100.86037203 59.89526235 -92.625 54.875 C-82.45822771 48.67876136 -72.24590269 42.56444004 -62 36.5 C-51.63554542 30.36332066 -41.29534285 24.18953684 -31 17.9375 C-30.41889465 17.58479034 -29.83778931 17.23208069 -29.23907471 16.86868286 C-21.58859889 12.22181221 -13.96250107 7.53741091 -6.4375 2.68920898 C-2.2140743 0 -2.2140743 0 0 0 Z " fill="#253973" transform="translate(249,250)"/>
<path d="M0 0 C6.74492907 2.24830969 6.74492907 2.24830969 10.1953125 4.44140625 C10.9795459 4.93415039 11.7637793 5.42689453 12.57177734 5.93457031 C13.41434082 6.47178711 14.2569043 7.00900391 15.125 7.5625 C16.99399227 8.73695019 18.86383032 9.91005516 20.734375 11.08203125 C21.73791016 11.71189941 22.74144531 12.34176758 23.77539062 12.99072266 C29.61141183 16.62718954 35.49406822 20.18679127 41.375 23.75 C42.5974189 24.4913625 43.81983106 25.23273612 45.04223633 25.97412109 C50.95697935 29.55975215 56.87686817 33.13654478 62.8125 36.6875 C69.7735715 40.85299244 76.70182638 45.07155056 83.62939453 49.29248047 C91.31113638 53.97290295 98.99788066 58.64503496 106.6875 63.3125 C107.27268402 63.66771729 107.85786804 64.02293457 108.46078491 64.38891602 C111.44695498 66.20157346 114.43317701 68.01414525 117.41943359 69.82666016 C120.37051873 71.61786356 123.32146425 73.40929676 126.27230835 75.20089722 C127.43783928 75.90854608 128.60338699 76.61616731 129.76895142 77.32376099 C132.66245028 79.08041447 135.5556481 80.83756013 138.44824219 82.59570312 C143.90682476 85.91275799 149.36834349 89.22469133 154.83969116 92.5206604 C157.41920244 94.07495618 159.99713531 95.63185924 162.57495117 97.18896484 C163.80235499 97.92936494 165.030528 98.66849162 166.25952148 99.40625 C167.96533174 100.43034798 169.66827121 101.45922309 171.37109375 102.48828125 C172.33974365 103.07134033 173.30839355 103.65439941 174.30639648 104.25512695 C176.99264384 105.9952348 179.50074399 108.0005952 182 110 C121.94 110 61.88 110 0 110 C0 73.7 0 37.4 0 0 Z " fill="#253873" transform="translate(350,250)"/>
<path d="M0 0 C58.74 0 117.48 0 178 0 C174.57433653 2.74053078 171.49935365 5.03576815 167.80859375 7.29296875 C166.79603516 7.91429687 165.78347656 8.535625 164.74023438 9.17578125 C163.10538086 10.17158203 163.10538086 10.17158203 161.4375 11.1875 C160.2804466 11.89558443 159.12354873 12.60392306 157.96679688 13.3125 C148.48708377 19.11395406 138.98238493 24.87461189 129.47753906 30.63476562 C120.44187059 36.1125741 111.43868696 41.6419809 102.4440918 47.18701172 C90.69513756 54.42719839 78.90213886 61.59443264 67.10595703 68.75732422 C56.88042727 74.9673335 46.6653118 81.19178678 36.5 87.5 C28.80496887 92.27177496 21.09874884 97.02482616 13.375 101.75 C11.8890332 102.66362305 11.8890332 102.66362305 10.37304688 103.59570312 C9.45330078 104.15708984 8.53355469 104.71847656 7.5859375 105.296875 C6.7717334 105.79541992 5.9575293 106.29396484 5.11865234 106.80761719 C3 108 3 108 0 109 C0 73.03 0 37.06 0 0 Z " fill="#243873" transform="translate(350,0)"/>
<path d="M0 0 C58.74 0 117.48 0 178 0 C178 35.97 178 71.94 178 109 C177.34 109 176.68 109 176 109 C176 108.34 176 107.68 176 107 C175.14664063 106.75378906 174.29328125 106.50757812 173.4140625 106.25390625 C169.72497623 104.89899012 166.64339382 103.06960949 163.375 100.9375 C161.9517594 100.0293061 160.52717049 99.12322322 159.1015625 98.21875 C158.30137695 97.71085937 157.50119141 97.20296875 156.67675781 96.6796875 C151.40505716 93.37165207 146.07380728 90.16072344 140.75 86.9375 C139.53821286 86.20310276 138.32646191 85.46864578 137.11474609 84.73413086 C134.64120717 83.2349275 132.16737085 81.73621638 129.69335938 80.23779297 C124.37234418 77.01451931 119.05521274 73.78485149 113.73791504 70.55545044 C110.82544806 68.78668471 107.91270985 67.01836574 105 65.25 C103.83333204 64.54166879 102.66666538 63.83333546 101.5 63.125 C100.63375 62.5990625 100.63375 62.5990625 99.75 62.0625 C94.5 58.875 94.5 58.875 92.75003052 57.81251526 C91.58326599 57.10412469 90.4164976 56.3957405 89.24972534 55.68736267 C86.33452415 53.91745721 83.41939008 52.14744139 80.50439453 50.37719727 C75.23703546 47.17853713 69.969185 43.9807008 64.69885254 40.78694153 C49.38225568 31.50522439 34.09353815 22.18065454 18.85839844 12.765625 C17.01361798 11.62610909 15.16797643 10.48798549 13.32128906 9.3515625 C11.00369066 7.9253481 8.68885666 6.4947741 6.375 5.0625 C5.71145508 4.65523682 5.04791016 4.24797363 4.36425781 3.82836914 C2.89208897 2.9130132 1.44272686 1.96109146 0 1 C0 0.67 0 0.34 0 0 Z " fill="#253973" transform="translate(71,0)"/>
<path d="M0 0 C1.41112312 0.00022659 1.41112312 0.00022659 2.85075378 0.00045776 C3.86333755 0.01078033 4.87592133 0.02110291 5.91918945 0.03173828 C7.47764336 0.03598312 7.47764336 0.03598312 9.06758118 0.04031372 C12.38932767 0.05151797 15.71080556 0.07662314 19.0324707 0.10205078 C21.28311785 0.11208026 23.53376923 0.12120616 25.78442383 0.12939453 C31.30469793 0.15145808 36.82481513 0.18493807 42.3449707 0.22705078 C39.60172006 3.09394985 36.72166282 4.93482516 33.2980957 6.96533203 C32.69902908 7.32251816 32.09996246 7.67970428 31.48274231 8.04771423 C30.19408168 8.81543995 28.9042293 9.58116809 27.61331177 10.34509277 C24.88100198 11.9620788 22.15448756 13.58872023 19.42762756 15.21487427 C18.04440545 16.03964444 16.66088977 16.86392249 15.27708435 17.68771362 C9.29845723 21.24806321 3.34699531 24.85183685 -2.5925293 28.47705078 C-3.51622314 29.04037109 -4.43991699 29.60369141 -5.39160156 30.18408203 C-7.23285543 31.30730674 -9.07392231 32.43083805 -10.91479492 33.5546875 C-15.55512025 36.38667507 -20.19884205 39.21308034 -24.8425293 42.03955078 C-25.78257812 42.61181396 -26.72262695 43.18407715 -27.69116211 43.77368164 C-38.81328774 50.54297941 -49.94404276 57.29806468 -61.07446289 64.05371094 C-66.35332448 67.25779162 -71.63167822 70.46270873 -76.9100647 73.66757202 C-79.82503156 75.43743342 -82.74003216 77.20723925 -85.6550293 78.97705078 C-86.82169612 79.68538385 -87.98836279 80.39371718 -89.1550293 81.10205078 C-91.48836263 82.51871745 -93.82169596 83.93538411 -96.1550293 85.35205078 C-96.73240341 85.70260025 -97.30977753 86.05314972 -97.90464783 86.4143219 C-99.07258284 87.12342348 -100.24052107 87.83251974 -101.40846252 88.54161072 C-104.30574989 90.30064652 -107.20298307 92.05977144 -110.10009766 93.8190918 C-115.58118445 97.14743963 -121.0628541 100.47481772 -126.54629517 103.79928589 C-129.1443451 105.37448654 -131.74210586 106.95016371 -134.33984375 108.52587891 C-135.58156083 109.27888482 -136.82342049 110.03165568 -138.06542969 110.78417969 C-139.78445599 111.82574453 -141.50295792 112.86817467 -143.22143555 113.91064453 C-144.69012085 114.8009436 -144.69012085 114.8009436 -146.18847656 115.70922852 C-148.0339357 116.84485352 -149.85207718 118.0250827 -151.6550293 119.22705078 C-153.87602234 119.46755981 -153.87602234 119.46755981 -156.49365234 119.45410156 C-157.4744426 119.4539505 -158.45523285 119.45379944 -159.46574402 119.4536438 C-160.52207535 119.44332123 -161.57840668 119.43299866 -162.66674805 119.42236328 C-163.75010941 119.41953339 -164.83347076 119.41670349 -165.94966125 119.41378784 C-169.41406238 119.40258169 -172.87820615 119.37747613 -176.3425293 119.35205078 C-178.68953077 119.34202155 -181.0365363 119.3328956 -183.38354492 119.32470703 C-189.14079437 119.30264095 -194.89789345 119.26915905 -200.6550293 119.22705078 C-197.6568089 116.75987807 -194.69795735 114.53620275 -191.33862305 112.59033203 C-190.50733887 112.10483887 -189.67605469 111.6193457 -188.81958008 111.11914062 C-187.91965332 110.59787598 -187.01972656 110.07661133 -186.0925293 109.53955078 C-177.43639069 104.4769641 -168.84052959 99.32455405 -160.2800293 94.10205078 C-150.07456162 87.87974587 -139.81853953 81.74846478 -129.5300293 75.66455078 C-118.5539359 69.17356725 -107.6567859 62.57332115 -96.81420898 55.86132812 C-89.29917641 51.21666913 -81.72231495 46.69081042 -74.10375977 42.21850586 C-66.15909643 37.5464738 -58.2798864 32.76944611 -50.40829468 27.97583008 C-39.35664991 21.24634893 -28.26763659 14.58058256 -17.1628418 7.93920898 C-16.54816544 7.57124207 -15.93348907 7.20327515 -15.30018616 6.82415771 C-13.63555211 5.82771106 -11.97038268 4.83215896 -10.30517578 3.83666992 C-3.95341549 -0.02119794 -3.95341549 -0.02119794 0 0 Z " fill="#D52129" transform="translate(556.655029296875,-0.22705078125)"/>
<path d="M0 0 C0.8850119 0.00141495 1.7700238 0.0028299 2.68185425 0.00428772 C5.51449941 0.00989485 8.34706614 0.02244854 11.1796875 0.03515625 C13.09765511 0.04017033 15.01562396 0.0447334 16.93359375 0.04882812 C21.64065532 0.05986659 26.3476581 0.077136 31.0546875 0.09765625 C27.85773636 2.72486782 24.63728289 5.09142499 21.125 7.27734375 C19.7030835 8.16474243 19.7030835 8.16474243 18.25244141 9.07006836 C17.23843262 9.69792236 16.22442383 10.32577637 15.1796875 10.97265625 C14.11540527 11.63467041 13.05112305 12.29668457 11.95458984 12.97875977 C3.9436784 17.95200836 -4.10137395 22.8681962 -12.16235352 27.75976562 C-22.68709544 34.14650621 -33.16639599 40.60655961 -43.64697266 47.06542969 C-49.07829942 50.41186669 -54.51191033 53.75459043 -59.9453125 57.09765625 C-62.11199035 58.43097142 -64.27865701 59.76430476 -66.4453125 61.09765625 C-105.4453125 85.09765625 -105.4453125 85.09765625 -108.69897461 87.09985352 C-110.85350138 88.42575354 -113.00796163 89.75176167 -115.16235352 91.07788086 C-120.17498727 94.16319166 -125.18821511 97.2475211 -130.20394897 100.32778931 C-131.96230607 101.40770581 -133.7204429 102.48798 -135.47851562 103.56835938 C-137.67079023 104.91541967 -139.86346713 106.26182558 -142.05664062 107.60742188 C-143.06017578 108.22423828 -144.06371094 108.84105469 -145.09765625 109.4765625 C-146.59051147 110.36903687 -146.59051147 110.36903687 -148.11352539 111.27954102 C-150.95150238 113.01112376 -150.95150238 113.01112376 -153.29077148 115.10131836 C-162.7384926 122.72435991 -174.66223208 120.85219308 -186.1328125 120.53515625 C-188.34695585 120.49999569 -190.56115297 120.46806507 -192.77539062 120.43945312 C-198.1665497 120.36281159 -203.55567739 120.24609541 -208.9453125 120.09765625 C-208.9453125 119.43765625 -208.9453125 118.77765625 -208.9453125 118.09765625 C-207.08250666 116.8292982 -205.15158638 115.66078424 -203.19921875 114.53515625 C-202.60183395 114.18790497 -202.00444916 113.84065369 -201.38896179 113.48287964 C-199.4324632 112.34760845 -197.47017894 111.22274871 -195.5078125 110.09765625 C-194.15743069 109.31603854 -192.80749657 108.53364687 -191.45800781 107.75048828 C-188.80293484 106.21071695 -186.14591077 104.67441756 -183.48681641 103.14160156 C-179.37775803 100.77210008 -175.28246502 98.37973311 -171.1953125 95.97265625 C-170.5559375 95.59713623 -169.9165625 95.22161621 -169.2578125 94.8347168 C-164.21538016 91.86584854 -159.20309267 88.84788522 -154.19116211 85.82788086 C-143.30235475 79.26820743 -132.34865397 72.83970514 -121.32421875 66.51074219 C-113.21233231 61.8471396 -105.17580823 57.07121943 -97.1640625 52.23828125 C-81.02907953 42.50983563 -64.77156828 32.98500097 -48.50720215 23.4750061 C-38.47311295 17.60584089 -28.48937976 11.65689023 -18.53466797 5.65405273 C-17.56287598 5.06825439 -16.59108398 4.48245605 -15.58984375 3.87890625 C-14.73753174 3.36392578 -13.88521973 2.84894531 -13.00708008 2.31835938 C-8.66339747 -0.25338876 -4.94983688 -0.02954739 0 0 Z " fill="#D62129" transform="translate(208.9453125,239.90234375)"/>
<path d="M0 0 C43.23 0 86.46 0 131 0 C131 26.07 131 52.14 131 79 C114.89918469 69.79953411 114.89918469 69.79953411 109.3359375 66.484375 C108.69961395 66.10646317 108.06329041 65.72855133 107.40768433 65.33918762 C105.39606597 64.14400381 103.3854851 62.94708894 101.375 61.75 C99.95803915 60.90741801 98.54104658 60.06488935 97.12402344 59.22241211 C85.6452586 52.39511322 74.18928463 45.53029304 62.74609375 38.64355469 C54.20557095 33.50532421 45.65531471 28.38417887 37.08203125 23.30078125 C36.38280548 22.88610092 35.68357971 22.47142059 34.96316528 22.04417419 C31.47803313 19.97760779 27.99208924 17.91242945 24.50488281 15.84936523 C18.16009189 12.09257729 11.82608123 8.31797714 5.52734375 4.484375 C3.92814087 3.51322754 3.92814087 3.51322754 2.29663086 2.52246094 C1.53874268 2.02004883 0.78085449 1.51763672 0 1 C0 0.67 0 0.34 0 0 Z " fill="#243873" transform="translate(469,240)"/>
<path d="M0 0 C42.9 0 85.8 0 130 0 C126.32076441 2.94338847 123.10570768 5.22916641 119.08203125 7.546875 C118.51664642 7.87470978 117.9512616 8.20254456 117.3687439 8.54031372 C116.15302162 9.24522728 114.93635813 9.94851967 113.71884155 10.65032959 C103.44750273 16.57533676 93.26262506 22.62084694 83.1875 28.875 C73.56456863 34.84250813 63.87111394 40.67420033 54.125 46.4375 C43.54827943 52.69310634 33.00070128 58.99248688 22.5 65.375 C21.91881409 65.72803192 21.33762817 66.08106384 20.73883057 66.4447937 C15.57917581 69.5802677 10.42806311 72.72013754 5.34375 75.9765625 C2 78 2 78 0 78 C0 52.26 0 26.52 0 0 Z " fill="#243873" transform="translate(0,240)"/>
<path d="M0 0 C7.32960108 3.66480054 14.31904923 7.23587238 21.25 11.5 C22.98616309 12.55472991 24.72318046 13.60805458 26.4609375 14.66015625 C27.36166992 15.20559082 28.26240234 15.75102539 29.19042969 16.31298828 C34.05748939 19.23542333 38.96662268 22.08519048 43.875 24.9375 C52.39053808 29.89028374 60.88576111 34.87521739 69.36108398 39.89648438 C74.57031037 42.98027976 79.78787765 46.04927333 85.015625 49.1015625 C96.82398474 55.99740682 108.61570577 62.91587011 120.3125 70 C121.29726318 70.59353271 122.28202637 71.18706543 123.29663086 71.79858398 C124.18487549 72.33942627 125.07312012 72.88026855 125.98828125 73.4375 C126.76727783 73.91058594 127.54627441 74.38367188 128.34887695 74.87109375 C128.89374756 75.24363281 129.43861816 75.61617188 130 76 C130 76.33 130 76.66 130 77 C87.1 77 44.2 77 0 77 C0 51.59 0 26.18 0 0 Z " fill="#253973" transform="translate(0,42)"/>
<path d="M0 0 C0 25.74 0 51.48 0 78 C-41.91 78 -83.82 78 -127 78 C-123.73415726 75.38732581 -120.90826235 73.22032753 -117.39453125 71.109375 C-116.50677002 70.57296387 -115.61900879 70.03655273 -114.7043457 69.48388672 C-113.75003662 68.9117041 -112.79572754 68.33952148 -111.8125 67.75 C-109.73917935 66.49806462 -107.66627873 65.24543343 -105.59375 63.9921875 C-104.51351563 63.33959961 -103.43328125 62.68701172 -102.3203125 62.01464844 C-96.79927431 58.66467732 -91.30726832 55.26782206 -85.8125 51.875 C-77.32626186 46.64092425 -68.80822288 41.46656237 -60.24731445 36.35571289 C-53.60660845 32.38333289 -47.02712708 28.31713418 -40.45629883 24.23046875 C-31.39650533 18.60512323 -22.27618892 13.0804129 -13.15234375 7.55981445 C-12.56655548 7.20508057 -11.98076721 6.85034668 -11.37722778 6.48486328 C-9.77773423 5.51639689 -8.17770293 4.5488188 -6.57763672 3.58129883 C-0.7398487 0 -0.7398487 0 0 0 Z " fill="#253973" transform="translate(600,41)"/>
<path d="M0 0 C3.60061056 1.3455973 6.79285589 2.95810004 10.078125 4.94921875 C11.06143799 5.5424292 12.04475098 6.13563965 13.05786133 6.74682617 C14.11126709 7.38724854 15.16467285 8.0276709 16.25 8.6875 C17.93248771 9.70388252 19.61497884 10.72025942 21.29768372 11.73628235 C23.04271183 12.79053457 24.78679233 13.84634126 26.53076172 14.90234375 C31.94809692 18.18055518 37.38118924 21.43251758 42.8125 24.6875 C44.88939422 25.93347491 46.96621815 27.17956698 49.04296875 28.42578125 C50.04118652 29.02471191 51.0394043 29.62364258 52.06787109 30.24072266 C54.87467448 31.92480469 57.68147786 33.60888672 60.48828125 35.29296875 C61.34768311 35.80859375 62.20708496 36.32421875 63.0925293 36.85546875 C64.76983293 37.86188327 66.44707979 38.86839242 68.12426758 39.875 C71.61018125 41.96704161 75.09641625 44.05851162 78.5859375 46.14453125 C85.1148055 50.05139391 91.62569737 53.98634022 98.12533569 57.94169617 C109.25709696 64.7156247 120.40693094 71.45071834 131.64208984 78.05249023 C139.62475469 82.75384367 147.54071874 87.5630007 155.44943237 92.38726807 C162.16575573 96.48341884 168.89836378 100.54733788 175.6796875 104.53515625 C176.30311539 104.90218155 176.92654327 105.26920685 177.56886292 105.64735413 C180.56200579 107.40842029 183.55820482 109.16394307 186.55932617 110.91137695 C188.15611206 111.84856567 188.15611206 111.84856567 189.78515625 112.8046875 C190.72238525 113.35108887 191.65961426 113.89749023 192.62524414 114.46044922 C194.74243915 115.83302368 196.26432219 117.19728725 198 119 C150.59281671 122.0349313 150.59281671 122.0349313 129.73071289 106.03442383 C121.01120492 99.53825396 111.26811956 94.34750294 101.88406372 88.87487793 C98.71254972 87.0251779 95.54401689 85.17038005 92.375 83.31640625 C91.74340469 82.94707977 91.11180939 82.5777533 90.46107483 82.19723511 C84.81899593 78.8970691 79.18821027 75.5779934 73.5625 72.25 C72.68279541 71.72962158 71.80309082 71.20924316 70.89672852 70.6730957 C69.14347228 69.63571869 67.39029763 68.59820378 65.63720703 67.56054688 C62.0139097 65.41648869 58.38920931 63.2748088 54.7644043 61.13330078 C52.92848722 60.04858072 51.09271135 58.96362161 49.25708008 57.87841797 C44.6269586 55.14133129 39.99494842 52.40753185 35.359375 49.6796875 C26.43509879 44.42456393 17.52930118 39.1430358 8.6875 33.75 C7.53942871 33.05076416 7.53942871 33.05076416 6.36816406 32.33740234 C1.12537169 29.12537169 1.12537169 29.12537169 0 28 C-0.08767112 25.92737924 -0.10695873 23.85179706 -0.09765625 21.77734375 C-0.09443359 20.51728516 -0.09121094 19.25722656 -0.08789062 17.95898438 C-0.07953403 16.61848891 -0.07106907 15.27799412 -0.0625 13.9375 C-0.0574866 12.59310058 -0.05292342 11.2486994 -0.04882812 9.90429688 C-0.03699488 6.60282059 -0.02050971 3.30143197 0 0 Z " fill="#D52229" transform="translate(0,0)"/>
<path d="M0 0 C27.41456535 -2.00616521 47.83030188 -2.47391939 70.01074219 14.74316406 C74.61320647 18.2179419 79.53412372 21.0815452 84.5 24 C86.37303441 25.13612967 88.24411173 26.27549168 90.11328125 27.41796875 C99.59870338 33.19163398 109.09248319 38.95154535 118.5854187 44.71284485 C122.82489278 47.2860535 127.06306203 49.86140261 131.30078125 52.4375 C133.70042682 53.89598808 136.10017558 55.35430622 138.5 56.8125 C139.08927277 57.17057739 139.67854553 57.52865479 140.28567505 57.89758301 C146.75960925 61.83064388 153.23588637 65.75930853 159.74511719 69.63378906 C161.31874381 70.57848161 162.8847391 71.53601628 164.44238281 72.50683594 C168.59494052 75.07664945 172.75199557 77.39571352 177.17523193 79.47450256 C192.91161449 86.93873658 192.91161449 86.93873658 198 93 C200.97605541 101.73120271 199.6519382 111.09321842 198 120 C187.97716443 114.31537753 178.02987691 108.51254707 168.125 102.625 C167.41746582 102.20492676 166.70993164 101.78485352 165.98095703 101.35205078 C158.02520944 96.62669924 150.09623551 91.87507931 142.28662109 86.91088867 C134.51431471 82.0063667 126.57066251 77.3811928 118.66165161 72.70196533 C108.71783221 66.81759041 98.80687362 60.88343343 88.9375 54.875 C88.34723022 54.51566376 87.75696045 54.15632751 87.14880371 53.78610229 C84.37232002 52.09561532 81.59604769 50.40478147 78.81982422 48.71386719 C75.38829533 46.62821067 71.94651124 44.56080054 68.5 42.5 C61.02763343 38.03030657 53.59014413 33.50335756 46.15261841 28.97601318 C38.99563089 24.61990309 31.82431522 20.28975746 24.625 16.00390625 C23.24356345 15.18026977 21.86213433 14.35662082 20.48071289 13.53295898 C17.82651559 11.95075698 15.16893671 10.37443703 12.50952148 8.80102539 C11.29658653 8.07849875 10.08377102 7.35577156 8.87109375 6.6328125 C7.80818115 6.00262207 6.74526855 5.37243164 5.65014648 4.72314453 C3.41279001 3.26839907 1.82441692 1.90363237 0 0 Z " fill="#D6222A" transform="translate(402,240)"/>
<path d="M0 0 C0.66 0 1.32 0 2 0 C2.02332788 18.75799498 2.04097863 37.51598703 2.05181217 56.27399349 C2.05697537 64.9830416 2.06401851 73.69208071 2.07543945 82.40112305 C2.08538558 89.98913741 2.09185326 97.57714526 2.09408849 105.16516596 C2.09539572 109.18547119 2.09848234 113.20575778 2.10573006 117.22605705 C2.11248915 121.00573984 2.11461719 124.7853962 2.11310768 128.56508446 C2.11338406 129.95630283 2.11538985 131.34752203 2.11920547 132.7387352 C2.12414091 134.63013326 2.12239798 136.52154532 2.12025452 138.41294861 C2.12163721 140.0044242 2.12163721 140.0044242 2.12304783 141.6280508 C2 144 2 144 1 145 C-0.44392944 145.09665268 -1.89257739 145.12371812 -3.33973789 145.12304783 C-4.28224575 145.12503888 -5.2247536 145.12702993 -6.1958223 145.12908131 C-7.2434655 145.12616847 -8.2911087 145.12325563 -9.37049866 145.12025452 C-10.47391222 145.12110894 -11.57732578 145.12196337 -12.71417612 145.12284368 C-16.44236071 145.12450172 -20.17050113 145.11897183 -23.89868164 145.11352539 C-26.55889488 145.11324356 -29.21910534 145.11335705 -31.87931824 145.1139679 C-37.62242662 145.11449332 -43.36552369 145.11134458 -49.10862923 145.10573006 C-57.41228815 145.09761757 -65.71594157 145.0950001 -74.01960402 145.09374207 C-87.49036738 145.09155115 -100.96112469 145.08488999 -114.43188477 145.07543945 C-127.52075164 145.06626636 -140.60961689 145.05918502 -153.69848633 145.05493164 C-154.50471241 145.05466892 -155.31093849 145.05440619 -156.14159567 145.05413551 C-160.18602426 145.05283051 -164.23045287 145.05156679 -168.27488148 145.05032361 C-201.84992537 145.03994976 -235.42496195 145.02233037 -269 145 C-269 144.34 -269 143.68 -269 143 C-180.23 143 -91.46 143 0 143 C0 95.81 0 48.62 0 0 Z " fill="#C14C51" transform="translate(269,0)"/>
<path d="M0 0 C88.77 0 177.54 0 269 0 C269 47.19 269 94.38 269 143 C268.34 143 267.68 143 267 143 C267 96.47 267 49.94 267 2 C178.89 2 90.78 2 0 2 C0 1.34 0 0.68 0 0 Z " fill="#FEE7E9" transform="translate(0,217)"/>
<path d="M0 0 C0.66 0 1.32 0 2 0 C2 47.19 2 94.38 2 143 C-86.77 143 -175.54 143 -267 143 C-267 142.34 -267 141.68 -267 141 C-178.89 141 -90.78 141 0 141 C0 94.47 0 47.94 0 0 Z " fill="#FDF2F2" transform="translate(267,0)"/>
<path d="M0 0 C0.66 0 1.32 0 2 0 C2 34.98 2 69.96 2 106 C2.66 106.33 3.32 106.66 4 107 C2.02 107.99 2.02 107.99 0 109 C0 73.03 0 37.06 0 0 Z " fill="#3C4A77" transform="translate(350,0)"/>
<path d="M0 0 C43.23 0 86.46 0 131 0 C131 0.33 131 0.66 131 1 C89.75 1.33 48.5 1.66 6 2 C6.99 2.99 7.98 3.98 9 5 C4.89198233 3.81323934 3.10551666 3.10551666 0 0 Z " fill="#273663" transform="translate(469,240)"/>
<path d="M0 0 C42.9 0 85.8 0 130 0 C128.68 0.99 127.36 1.98 126 3 C125.01 2.67 124.02 2.34 123 2 C121.32546463 1.89860626 119.64724035 1.85375197 117.96968079 1.84178162 C116.41108337 1.82709839 116.41108337 1.82709839 114.82099915 1.81211853 C113.68164413 1.80636307 112.54228912 1.8006076 111.3684082 1.79467773 C110.16828094 1.78477814 108.96815369 1.77487854 107.73165894 1.76467896 C104.44062453 1.73848617 101.14961445 1.71662621 97.85853982 1.69667697 C94.41919104 1.67480961 90.97988634 1.64742459 87.54057312 1.62062073 C81.02770076 1.57070399 74.51480392 1.52576138 68.00188369 1.48259836 C60.58717402 1.43321728 53.17250859 1.37830238 45.75784171 1.32291877 C30.50526868 1.20911437 15.25265498 1.10227197 0 1 C0 0.67 0 0.34 0 0 Z " fill="#293764" transform="translate(0,240)"/>
<path d="M0 0 C0 0.66 0 1.32 0 2 C-0.66 2 -1.32 2 -2 2 C-2.33 2.99 -2.66 3.98 -3 5 C-5.0625 5.6875 -5.0625 5.6875 -7 6 C-1.41325196 6.02478762 4.1734638 6.04290152 9.76025391 6.05493164 C11.65934812 6.05994885 13.5584385 6.06676411 15.45751953 6.07543945 C18.19304352 6.08761963 20.92851626 6.09325454 23.6640625 6.09765625 C24.93003769 6.10539818 24.93003769 6.10539818 26.22158813 6.11329651 C30.59835842 6.11370954 34.69004167 5.88088964 39 5 C36.78693861 7.42953368 34.94477539 8.85619648 31.65097046 9.35754395 C28.69112603 9.46274562 25.75415416 9.44907011 22.79296875 9.390625 C21.71243729 9.38496521 20.63190582 9.37930542 19.51863098 9.37347412 C16.07446611 9.35112043 12.63134935 9.30092391 9.1875 9.25 C6.84962442 9.22993379 4.5117325 9.21168323 2.17382812 9.1953125 C-3.55113761 9.15125895 -9.27549392 9.08435621 -15 9 C-12.01287538 6.59056091 -9.06589185 4.28887613 -5.8125 2.25 C-4.80123047 1.60804687 -4.80123047 1.60804687 -3.76953125 0.953125 C-2 0 -2 0 0 0 Z " fill="#BB383F" transform="translate(371,110)"/>
<path d="M0 0 C3.59007126 1.33345504 6.79570907 2.8943231 10 5 C10 5.33 10 5.66 10 6 C3.64631803 6.07597749 -2.70724709 6.12856897 -9.0612793 6.16479492 C-11.22343321 6.17989444 -13.38555643 6.20037571 -15.54760742 6.22631836 C-18.652909 6.26265017 -21.75780614 6.27971462 -24.86328125 6.29296875 C-25.83211746 6.30845261 -26.80095367 6.32393646 -27.79914856 6.33988953 C-29.15020943 6.34022942 -29.15020943 6.34022942 -30.52856445 6.34057617 C-31.32132278 6.34723801 -32.11408112 6.35389984 -32.93086243 6.36076355 C-35 6 -35 6 -38 3 C-25.13 3 -12.26 3 1 3 C0.505 1.515 0.505 1.515 0 0 Z " fill="#C1262D" transform="translate(188,113)"/>
<path d="M0 0 C0 0.99 0 1.98 0 3 C-1 4 -1 4 -3.01844788 4.12025452 C-3.90447189 4.11803391 -4.79049591 4.11581329 -5.70336914 4.11352539 C-6.70433121 4.11344986 -7.70529327 4.11337433 -8.73658752 4.11329651 C-9.8251152 4.10813522 -10.91364288 4.10297394 -12.03515625 4.09765625 C-13.14354355 4.0962413 -14.25193085 4.09482635 -15.39390564 4.09336853 C-18.95013069 4.08775033 -22.50629383 4.07519475 -26.0625 4.0625 C-28.46679597 4.05748734 -30.87109292 4.05292403 -33.27539062 4.04882812 C-39.18361504 4.03777499 -45.0918031 4.02101917 -51 4 C-51 3.34 -51 2.68 -51 2 C-50.08584824 1.9845388 -50.08584824 1.9845388 -49.15322876 1.96876526 C-42.82697535 1.86083047 -36.50086815 1.74622212 -30.17480469 1.62768555 C-27.81187999 1.58429484 -25.44892309 1.54262287 -23.0859375 1.50268555 C-19.69521364 1.44508307 -16.3046525 1.3813599 -12.9140625 1.31640625 C-11.32182358 1.29133751 -11.32182358 1.29133751 -9.69741821 1.26576233 C-8.71655243 1.24581711 -7.73568665 1.22587189 -6.72509766 1.20532227 C-5.42603989 1.18200584 -5.42603989 1.18200584 -4.10073853 1.15821838 C-1.94242107 1.12903408 -1.94242107 1.12903408 0 0 Z " fill="#FEE8E8" transform="translate(407,117)"/>
<path d="M0 0 C13.2 0 26.4 0 40 0 C36.81405468 2.54875626 33.71639573 4.9987844 30.375 7.3125 C29.24191406 8.11107422 29.24191406 8.11107422 28.0859375 8.92578125 C27.39757812 9.28027344 26.70921875 9.63476562 26 10 C25.01 9.67 24.02 9.34 23 9 C23.33 8.34 23.66 7.68 24 7 C24.99 7 25.98 7 27 7 C27 6.34 27 5.68 27 5 C28.65 4.34 30.3 3.68 32 3 C32 2.67 32 2.34 32 2 C21.44 1.67 10.88 1.34 0 1 C0 0.67 0 0.34 0 0 Z " fill="#B22E33" transform="translate(200,240)"/>
<path d="M0 0 C0.33 0.66 0.66 1.32 1 2 C0.34 2 -0.32 2 -1 2 C-1.268125 2.61875 -1.53625 3.2375 -1.8125 3.875 C-3 6 -3 6 -6 8 C-6 7.34 -6 6.68 -6 6 C-11.3310177 8.61521623 -13.77546166 10.24237134 -16 16 C-18.64 16 -21.28 16 -24 16 C-24 15.34 -24 14.68 -24 14 C-21.796875 12.48779297 -21.796875 12.48779297 -18.75 10.7421875 C-17.6671875 10.11699219 -16.584375 9.49179687 -15.46875 8.84765625 C-14.3240625 8.19667969 -13.179375 7.54570312 -12 6.875 C-10.84335718 6.21031851 -9.6871017 5.54496251 -8.53125 4.87890625 C-5.69125295 3.24590795 -2.84743478 1.61998339 0 0 Z " fill="#C82A31" transform="translate(24,344)"/>
<path d="M0 0 C0.66 0.33 1.32 0.66 2 1 C-0.31 3.64 -2.62 6.28 -5 9 C-5.99 8.67 -6.98 8.34 -8 8 C-8.99 8.33 -9.98 8.66 -11 9 C-11.33 9.99 -11.66 10.98 -12 12 C-12.66 12 -13.32 12 -14 12 C-14 12.66 -14 13.32 -14 14 C-16.70879335 15.35439668 -19.00933268 15.06501451 -22 15 C-18.3770653 11.11380207 -13.8988136 8.572531 -9.4375 5.75 C-8.56158203 5.1828125 -7.68566406 4.615625 -6.78320312 4.03125 C-5.52733398 3.23460937 -5.52733398 3.23460937 -4.24609375 2.421875 C-3.47966553 1.93299805 -2.7132373 1.44412109 -1.92358398 0.94042969 C-1.28880127 0.63008789 -0.65401855 0.31974609 0 0 Z " fill="#FAE2E3" transform="translate(69,345)"/>
<path d="M0 0 C2.97 0.99 5.94 1.98 9 3 C9 3.66 9 4.32 9 5 C9.69480469 5.26554687 10.38960937 5.53109375 11.10546875 5.8046875 C14.25676076 7.10603076 17.27000171 8.58703383 20.3125 10.125 C21.38113281 10.66382813 22.44976563 11.20265625 23.55078125 11.7578125 C24.76314453 12.37269531 24.76314453 12.37269531 26 13 C26 13.66 26 14.32 26 15 C26.99 15 27.98 15 29 15 C30.5625 16.4375 30.5625 16.4375 32 18 C32.66 18.33 33.32 18.66 34 19 C33.67 19.66 33.34 20.32 33 21 C24.25163371 15.91122258 15.53612831 10.77640241 6.9375 5.4375 C6.24140625 5.00840332 5.5453125 4.57930664 4.828125 4.13720703 C3.20057544 3.11998856 1.59727146 2.06413105 0 1 C0 0.67 0 0.34 0 0 Z " fill="#BD363D" transform="translate(525,314)"/>
<path d="M0 0 C14.85 0 29.7 0 45 0 C45 0.33 45 0.66 45 1 C43.88963379 1.01458252 42.77926758 1.02916504 41.63525391 1.04418945 C37.52375746 1.10207125 33.41281457 1.17930364 29.30175781 1.26245117 C27.52092458 1.2957484 25.73998459 1.32376531 23.95898438 1.34643555 C21.40188001 1.37989432 18.84575824 1.43220301 16.2890625 1.48828125 C15.49005524 1.49467117 14.69104797 1.5010611 13.86782837 1.50764465 C11.3870923 1.53954217 11.3870923 1.53954217 8 2 C7.01 3.485 7.01 3.485 6 5 C3.98079663 3.69593116 1.98075027 2.36176581 0 1 C0 0.67 0 0.34 0 0 Z " fill="#B42F34" transform="translate(402,240)"/>
<path d="M0 0 C1.98 0.99 3.96 1.98 6 3 C6 3.33 6 3.66 6 4 C-8.85 4 -23.7 4 -39 4 C-39 3.67 -39 3.34 -39 3 C-26.13 2.67 -13.26 2.34 0 2 C0 1.34 0 0.68 0 0 Z " fill="#B2494F" transform="translate(192,115)"/>
<path d="M0 0 C5.39273636 0.27655058 8.56665942 2.51617465 12.83984375 5.51953125 C15.43922411 7.3010234 18.17186202 8.61601758 21 10 C22.46936411 10.83504846 23.92734515 11.69035767 25.375 12.5625 C26.06335938 12.97628906 26.75171875 13.39007813 27.4609375 13.81640625 C27.96882813 14.20699219 28.47671875 14.59757812 29 15 C29 15.66 29 16.32 29 17 C25.36709721 15.63842673 22.10833042 14.00338729 18.76953125 12.03125 C17.80208984 11.46019531 16.83464844 10.88914062 15.83789062 10.30078125 C14.83951172 9.70652344 13.84113281 9.11226562 12.8125 8.5 C11.80251953 7.90574219 10.79253906 7.31148437 9.75195312 6.69921875 C2.25796644 2.25796644 2.25796644 2.25796644 0 0 Z " fill="#BE3940" transform="translate(39,51)"/>
<path d="M0 0 C1.32 0.33 2.64 0.66 4 1 C1.4378513 2.60473003 -1.12470555 4.20880182 -3.6875 5.8125 C-4.40873047 6.26431641 -5.12996094 6.71613281 -5.87304688 7.18164062 C-7.27924389 8.06131638 -8.68660224 8.93913891 -10.09521484 9.81494141 C-11.69849412 10.81241867 -13.29706934 11.81745126 -14.89453125 12.82421875 C-17 14 -17 14 -19 14 C-19 13.34 -19 12.68 -19 12 C-18.01 12 -17.02 12 -16 12 C-16 11.34 -16 10.68 -16 10 C-15.01 10 -14.02 10 -13 10 C-13 9.34 -13 8.68 -13 8 C-12.34 8 -11.68 8 -11 8 C-11 7.34 -11 6.68 -11 6 C-9.35 6 -7.7 6 -6 6 C-6 5.34 -6 4.68 -6 4 C-5.01 4 -4.02 4 -3 4 C-3 3.34 -3 2.68 -3 2 C-2.01 2 -1.02 2 0 2 C0 1.34 0 0.68 0 0 Z " fill="#BF3338" transform="translate(458,83)"/>
<path d="M0 0 C0.66 0.33 1.32 0.66 2 1 C-0.8042369 4.11581877 -3.09249018 5.56039112 -7 7 C-7.66 7.66 -8.32 8.32 -9 9 C-9.99 9 -10.98 9 -12 9 C-12 9.66 -12 10.32 -12 11 C-15.22791555 13.1519437 -16.28400809 13.20086443 -20 13 C-15.99351344 9.62897166 -11.78410342 6.88087121 -7.3125 4.1875 C-6.29833008 3.55811523 -6.29833008 3.55811523 -5.26367188 2.91601562 C-3.54672794 1.87901566 -1.77647861 0.9313373 0 0 Z " fill="#FBDFDF" transform="translate(484,70)"/>
<path d="M0 0 C0.99 0.33 1.98 0.66 3 1 C-0.48720616 5.3590077 -3.72760915 5.94552183 -9 7 C-9 7.66 -9 8.32 -9 9 C-12.22791555 11.1519437 -13.28400809 11.20086443 -17 11 C-13.61325931 8.37049126 -10.06245206 6.03343437 -6.4375 3.75 C-5.86064453 3.37359375 -5.28378906 2.9971875 -4.68945312 2.609375 C-3.1741842 1.65861803 -1.58949868 0.82065381 0 0 Z " fill="#C3363E" transform="translate(54,326)"/>
<path d="M0 0 C0 0.66 0 1.32 0 2 C-4.38461538 5 -4.38461538 5 -7 5 C-7 5.66 -7 6.32 -7 7 C-8.98 7.33 -10.96 7.66 -13 8 C-13 8.99 -13 9.98 -13 11 C-14.65 11 -16.3 11 -18 11 C-18 11.66 -18 12.32 -18 13 C-18.66 13 -19.32 13 -20 13 C-18.8442468 9.53274039 -18.28847149 9.28209351 -15.25390625 7.51953125 C-14.49916016 7.07802734 -13.74441406 6.63652344 -12.96679688 6.18164062 C-11.77666992 5.50391602 -11.77666992 5.50391602 -10.5625 4.8125 C-9.77294922 4.34908203 -8.98339844 3.88566406 -8.16992188 3.40820312 C-2.28211294 0 -2.28211294 0 0 0 Z " fill="#BE393E" transform="translate(149,271)"/>
<path d="M0 0 C2.64 0 5.28 0 8 0 C-2.66666667 9 -2.66666667 9 -7 9 C-7 8.34 -7 7.68 -7 7 C-4.69 5.68 -2.38 4.36 0 3 C0 2.01 0 1.02 0 0 Z " fill="#FBE5E6" transform="translate(544,0)"/>
<path d="M0 0 C0.66 0.66 1.32 1.32 2 2 C0.04480616 3.17192047 -1.9142539 4.3373929 -3.875 5.5 C-4.96554688 6.1496875 -6.05609375 6.799375 -7.1796875 7.46875 C-10 9 -10 9 -12 9 C-12 9.66 -12 10.32 -12 11 C-12.99 10.67 -13.98 10.34 -15 10 C-10.39486061 6.00887919 -5.24516756 3.05543741 0 0 Z " fill="#FBE0E0" transform="translate(130,308)"/>
<path d="M0 0 C7.31072001 2.7952753 13.57318538 6.58692063 20 11 C19.67 11.66 19.34 12.32 19 13 C16.01584578 11.21654158 13.03858697 9.4218827 10.0625 7.625 C9.21236328 7.11710937 8.36222656 6.60921875 7.48632812 6.0859375 C6.67744141 5.59609375 5.86855469 5.10625 5.03515625 4.6015625 C4.2862915 4.15119629 3.53742676 3.70083008 2.76586914 3.23681641 C1 2 1 2 0 0 Z " fill="#BD393E" transform="translate(431,257)"/>
<path d="M0 0 C1.32 0.33 2.64 0.66 4 1 C-1.28 4.3 -6.56 7.6 -12 11 C-12.33 10.01 -12.66 9.02 -13 8 C-11.71086513 7.32845067 -10.41859796 6.66291141 -9.125 6 C-8.40570313 5.62875 -7.68640625 5.2575 -6.9453125 4.875 C-5 4 -5 4 -3 4 C-3 3.34 -3 2.68 -3 2 C-2.01 2 -1.02 2 0 2 C0 1.34 0 0.68 0 0 Z " fill="#BE3238" transform="translate(156,289)"/>
<path d="M0 0 C2.97 0.99 5.94 1.98 9 3 C9 3.66 9 4.32 9 5 C10.32 5 11.64 5 13 5 C13 5.66 13 6.32 13 7 C13.99 7 14.98 7 16 7 C16.33 8.32 16.66 9.64 17 11 C4.72263132 4.44624448 4.72263132 4.44624448 0 1 C0 0.67 0 0.34 0 0 Z " fill="#BE383E" transform="translate(452,270)"/>
<path d="M0 0 C1.65 0.33 3.3 0.66 5 1 C1.47072234 3.90646395 -2.05230621 6.68287538 -6 9 C-6.99 8.67 -7.98 8.34 -9 8 C-8.67 7.34 -8.34 6.68 -8 6 C-7.01 6 -6.02 6 -5 6 C-5 5.34 -5 4.68 -5 4 C-3.35 3.34 -1.7 2.68 0 2 C0 1.34 0 0.68 0 0 Z " fill="#C33139" transform="translate(232,241)"/>
<path d="M0 0 C0.33 0.66 0.66 1.32 1 2 C-0.38980752 3.13243576 -1.78714677 4.25563119 -3.1875 5.375 C-3.96480469 6.00148438 -4.74210938 6.62796875 -5.54296875 7.2734375 C-7.96879382 8.97807134 -10.21309045 10.01987906 -13 11 C-13.66 10.34 -14.32 9.68 -15 9 C-10.05 6.03 -5.1 3.06 0 0 Z " fill="#FCE1E0" transform="translate(172,282)"/>
<path d="M0 0 C-3.40463967 4.20573135 -8.82281188 5.96456238 -14 7 C-14 7.66 -14 8.32 -14 9 C-15.32 8.67 -16.64 8.34 -18 8 C-15.56969216 6.46648472 -13.13194897 4.94816498 -10.6875 3.4375 C-9.65206055 2.78104492 -9.65206055 2.78104492 -8.59570312 2.11132812 C-7.92861328 1.70205078 -7.26152344 1.29277344 -6.57421875 0.87109375 C-5.96151123 0.48880615 -5.34880371 0.10651855 -4.7175293 -0.28735352 C-3 -1 -3 -1 0 0 Z " fill="#BE363C" transform="translate(194,246)"/>
<path d="M0 0 C-2.28819146 1.50554634 -4.58021169 3.00457043 -6.875 4.5 C-7.85146484 5.14388672 -7.85146484 5.14388672 -8.84765625 5.80078125 C-13.7734375 9 -13.7734375 9 -16 9 C-16 8.34 -16 7.68 -16 7 C-15.360625 6.71125 -14.72125 6.4225 -14.0625 6.125 C-11.84793921 5.17176549 -11.84793921 5.17176549 -11 3 C-10.01 3 -9.02 3 -8 3 C-8 2.34 -8 1.68 -8 1 C-2.25 -1.125 -2.25 -1.125 0 0 Z " fill="#C0333A" transform="translate(495,64)"/>
<path d="M0 0 C0.33 0.66 0.66 1.32 1 2 C0.34 2 -0.32 2 -1 2 C-1.268125 2.61875 -1.53625 3.2375 -1.8125 3.875 C-3 6 -3 6 -6 8 C-6 7.34 -6 6.68 -6 6 C-6.763125 6.515625 -7.52625 7.03125 -8.3125 7.5625 C-9.199375 8.036875 -10.08625 8.51125 -11 9 C-11.99 8.67 -12.98 8.34 -14 8 C-9.38 5.36 -4.76 2.72 0 0 Z " fill="#C4363E" transform="translate(24,344)"/>
<path d="M0 0 C0.33 0.99 0.66 1.98 1 3 C0.43410156 3.26554687 -0.13179687 3.53109375 -0.71484375 3.8046875 C-1.44832031 4.15789062 -2.18179688 4.51109375 -2.9375 4.875 C-3.66839844 5.22304688 -4.39929688 5.57109375 -5.15234375 5.9296875 C-7.16332459 6.8684977 -7.16332459 6.8684977 -8 9 C-10.32156597 9.40729228 -12.6568787 9.74438677 -15 10 C-12.36923129 7.00000059 -9.25820168 5.27617945 -5.8125 3.3125 C-4.72582031 2.68988281 -3.63914062 2.06726563 -2.51953125 1.42578125 C-1.68808594 0.95527344 -0.85664062 0.48476563 0 0 Z " fill="#BF333B" transform="translate(95,302)"/>
<path d="M0 0 C0.33 0.99 0.66 1.98 1 3 C-0.2065625 3.433125 -0.2065625 3.433125 -1.4375 3.875 C-4.1326468 4.73262568 -4.1326468 4.73262568 -5 7 C-6.8125 8.1875 -6.8125 8.1875 -9 9 C-10.32 8.67 -11.64 8.34 -13 8 C-8.71 5.36 -4.42 2.72 0 0 Z " fill="#FADFDF" transform="translate(156,292)"/>
<path d="M0 0 C0.99 0.33 1.98 0.66 3 1 C0.59888822 3.63884562 -2.00555028 5.36413529 -5.0625 7.1875 C-5.94035156 7.71730469 -6.81820312 8.24710937 -7.72265625 8.79296875 C-10 10 -10 10 -12 10 C-12 9.34 -12 8.68 -12 8 C-11.01 8 -10.02 8 -9 8 C-9 7.34 -9 6.68 -9 6 C-2.25 2 -2.25 2 0 2 C0 1.34 0 0.68 0 0 Z " fill="#FCE1E2" transform="translate(105,293)"/>
<path d="M0 0 C0.66 0.33 1.32 0.66 2 1 C-1.43361902 4.63559661 -4.7973607 7.36113346 -9 10 C-9 9.34 -9 8.68 -9 8 C-9.66 7.67 -10.32 7.34 -11 7 C-9.21475351 5.80286983 -7.4215972 4.61752721 -5.625 3.4375 C-4.62726563 2.77621094 -3.62953125 2.11492187 -2.6015625 1.43359375 C-1.74304688 0.96050781 -0.88453125 0.48742187 0 0 Z " fill="#FBE0E1" transform="translate(199,265)"/>
<path d="M0 0 C0.66 0.33 1.32 0.66 2 1 C-1.83126299 5.19614518 -4.33369884 7.64501494 -10 9 C-10.78375 9.20625 -11.5675 9.4125 -12.375 9.625 C-12.91125 9.74875 -13.4475 9.8725 -14 10 C-11.19533807 7.00618646 -8.38815731 4.8006379 -4.875 2.6875 C-4.00617188 2.15511719 -3.13734375 1.62273438 -2.2421875 1.07421875 C-1.50226563 0.71972656 -0.76234375 0.36523438 0 0 Z " fill="#FBDCDE" transform="translate(500,60)"/>
<path d="M0 0 C0.66 0.33 1.32 0.66 2 1 C-0.34608818 4.51913227 -2.23172645 5.23121854 -6 7 C-6.99 7.66 -7.98 8.32 -9 9 C-11.1875 8.625 -11.1875 8.625 -13 8 C-10.880788 6.63594382 -8.75551882 5.28368225 -6.625 3.9375 C-6.02171875 3.54755859 -5.4184375 3.15761719 -4.796875 2.75585938 C-3.23507443 1.77539568 -1.62007786 0.88083925 0 0 Z " fill="#BF373B" transform="translate(120,287)"/>
<path d="M0 0 C1.32 0.33 2.64 0.66 4 1 C2.21190303 2.17213045 0.41940875 3.33755526 -1.375 4.5 C-2.37273438 5.1496875 -3.37046875 5.799375 -4.3984375 6.46875 C-7 8 -7 8 -9 8 C-9 7.34 -9 6.68 -9 6 C-8.34 6 -7.68 6 -7 6 C-7 5.34 -7 4.68 -7 4 C-5.68 4 -4.36 4 -3 4 C-3 3.34 -3 2.68 -3 2 C-2.01 2 -1.02 2 0 2 C0 1.34 0 0.68 0 0 Z " fill="#C0323A" transform="translate(65,345)"/>
<path d="M0 0 C3.99534208 0.57076315 6.588173 1.90041415 10 4 C12.19130534 4.69579454 12.19130534 4.69579454 14 5 C13.67 5.99 13.34 6.98 13 8 C11.20601733 7.04600922 9.41488345 6.08665974 7.625 5.125 C6.62726562 4.59132813 5.62953125 4.05765625 4.6015625 3.5078125 C2 2 2 2 0 0 Z " fill="#C0353D" transform="translate(584,350)"/>
<path d="M0 0 C-3.46741134 2.95749791 -6.86873527 5.07848152 -11 7 C-11 4 -11 4 -8.875 1.8125 C-5.58442458 -0.2619932 -3.81365679 -0.35475877 0 0 Z " fill="#FBE3E4" transform="translate(378,105)"/>
<path d="M0 0 C-0.66 1.32 -1.32 2.64 -2 4 C-2.99 4 -3.98 4 -5 4 C-5 4.66 -5 5.32 -5 6 C-6.98 6.66 -8.96 7.32 -11 8 C-11.33 7.34 -11.66 6.68 -12 6 C-10.37829621 4.99466333 -8.75252763 3.99588093 -7.125 3 C-5.76761719 2.1646875 -5.76761719 2.1646875 -4.3828125 1.3125 C-2 0 -2 0 0 0 Z " fill="#FBE1E1" transform="translate(527,45)"/>
<path d="M0 0 C2.76276177 0.52268466 5.3260876 1.10869587 8 2 C8 2.66 8 3.32 8 4 C9.98 4.66 11.96 5.32 14 6 C13.34 6.66 12.68 7.32 12 8 C9.99743426 6.85865673 7.99800203 5.71181367 6 4.5625 C4.88625 3.92441406 3.7725 3.28632813 2.625 2.62890625 C1.75875 2.09136719 0.8925 1.55382812 0 1 C0 0.67 0 0.34 0 0 Z " fill="#C23A40" transform="translate(559,335)"/>
<path d="M0 0 C4.61513112 1.31860889 8.09897612 3.21355437 12 6 C9.21176345 7.0326802 8.1322726 7.04509293 5.25 6.0625 C4.5075 5.711875 3.765 5.36125 3 5 C3 4.01 3 3.02 3 2 C2.01 2 1.02 2 0 2 C0 1.34 0 0.68 0 0 Z " fill="#FDE4E2" transform="translate(461,277)"/>
<path d="M0 0 C0 0.66 0 1.32 0 2 C-0.61875 2.0825 -1.2375 2.165 -1.875 2.25 C-4.1765144 2.79994195 -4.1765144 2.79994195 -5.125 5 C-5.41375 5.66 -5.7025 6.32 -6 7 C-6.99 7.495 -6.99 7.495 -8 8 C-10.125 7.0625 -10.125 7.0625 -12 6 C-10.37829621 4.99466333 -8.75252763 3.99588093 -7.125 3 C-5.76761719 2.1646875 -5.76761719 2.1646875 -4.3828125 1.3125 C-2 0 -2 0 0 0 Z " fill="#C2363B" transform="translate(396,95)"/>
<path d="M0 0 C0.99 0.33 1.98 0.66 3 1 C-5.44827586 8 -5.44827586 8 -9 8 C-9 7.34 -9 6.68 -9 6 C-7.13671875 4.45703125 -7.13671875 4.45703125 -4.6875 2.8125 C-3.88699219 2.26207031 -3.08648437 1.71164062 -2.26171875 1.14453125 C-1.14216797 0.57798828 -1.14216797 0.57798828 0 0 Z " fill="#FCE1E3" transform="translate(65,317)"/>
<path d="M0 0 C1.32 0.66 2.64 1.32 4 2 C-1.14285714 6.42857143 -1.14285714 6.42857143 -5 7 C-5 6.34 -5 5.68 -5 5 C-4.01 5 -3.02 5 -2 5 C-1.7834375 4.0409375 -1.7834375 4.0409375 -1.5625 3.0625 C-1 1 -1 1 0 0 Z " fill="#C43036" transform="translate(51,352)"/>
<path d="M0 0 C2.97 0.99 5.94 1.98 9 3 C9 3.66 9 4.32 9 5 C10.32 5.66 11.64 6.32 13 7 C9.34899606 7 7.89878202 5.9552415 4.8125 4.0625 C3.46091797 3.24458984 3.46091797 3.24458984 2.08203125 2.41015625 C1.39496094 1.94480469 0.70789063 1.47945313 0 1 C0 0.67 0 0.34 0 0 Z " fill="#BC393E" transform="translate(500,299)"/>
<path d="M0 0 C0 0.99 0 1.98 0 3 C-2.59688473 5.59688473 -4.10659265 6.92058601 -7.8125 7.25 C-8.534375 7.1675 -9.25625 7.085 -10 7 C-6.80331012 4.3513141 -3.60513403 2.06007659 0 0 Z " fill="#DFE7F1" transform="translate(376,93)"/>
<path d="M0 0 C0.33 0.66 0.66 1.32 1 2 C-2.17495261 4.72138795 -4.95197831 6.82820425 -9 8 C-9.99 7.67 -10.98 7.34 -12 7 C-8.04 4.69 -4.08 2.38 0 0 Z " fill="#FBDCDD" transform="translate(453,89)"/>
<path d="M0 0 C0 0.66 0 1.32 0 2 C-0.99 2.33 -1.98 2.66 -3 3 C-4.20882096 5.00016466 -4.20882096 5.00016466 -5 7 C-6.65 6.67 -8.3 6.34 -10 6 C-7.35570758 3.077361 -4.105808 0 0 0 Z " fill="#C13339" transform="translate(521,20)"/>
<path d="M0 0 C0.33 0.66 0.66 1.32 1 2 C0.34 2 -0.32 2 -1 2 C-1.226875 2.639375 -1.45375 3.27875 -1.6875 3.9375 C-3 6 -3 6 -5.625 6.75 C-6.800625 6.87375 -6.800625 6.87375 -8 7 C-6.5361389 2.60841671 -4.02168662 2.12052567 0 0 Z " fill="#C4333B" transform="translate(421,79)"/>
<path d="M0 0 C4.30764815 1.56641751 8.06171464 3.68336156 12 6 C9 7 9 7 6.73828125 6.00390625 C5.93777344 5.52824219 5.13726562 5.05257812 4.3125 4.5625 C3.50425781 4.08941406 2.69601563 3.61632812 1.86328125 3.12890625 C1.24839844 2.75636719 0.63351563 2.38382812 0 2 C0 1.34 0 0.68 0 0 Z " fill="#BC323A" transform="translate(108,65)"/>
<path d="M0 0 C4.30764815 1.56641751 8.06171464 3.68336156 12 6 C9 7 9 7 6.73828125 6.00390625 C5.93777344 5.52824219 5.13726562 5.05257812 4.3125 4.5625 C3.50425781 4.08941406 2.69601563 3.61632813 1.86328125 3.12890625 C1.24839844 2.75636719 0.63351563 2.38382813 0 2 C0 1.34 0 0.68 0 0 Z " fill="#BC363D" transform="translate(68,41)"/>
<path d="M0 0 C2.31 0 4.62 0 7 0 C7.33 1.32 7.66 2.64 8 4 C7.01 4.495 7.01 4.495 6 5 C3.98079663 3.69593116 1.98075027 2.36176581 0 1 C0 0.67 0 0.34 0 0 Z " fill="#314272" transform="translate(71,0)"/>
<path d="M0 0 C0 0.99 0 1.98 0 3 C-2.70879335 4.35439668 -5.00933268 4.06501451 -8 4 C-5.29881977 1.17603885 -4.05589853 0 0 0 Z " fill="#FAE8EA" transform="translate(55,356)"/>
<path d="M0 0 C0.66 0.66 1.32 1.32 2 2 C-2.95 4.475 -2.95 4.475 -8 7 C-5.73826764 2.47653527 -4.46594067 1.94171334 0 0 Z " fill="#FDE6E8" transform="translate(54,324)"/>
<path d="M0 0 C0.66 0.66 1.32 1.32 2 2 C0.71186658 2.83878455 -0.58063256 3.67086783 -1.875 4.5 C-2.59429687 4.9640625 -3.31359375 5.428125 -4.0546875 5.90625 C-6 7 -6 7 -8 7 C-8 6.34 -8 5.68 -8 5 C-7.01 5 -6.02 5 -5 5 C-5 4.34 -5 3.68 -5 3 C-2.5 1.375 -2.5 1.375 0 0 Z " fill="#FBDCDB" transform="translate(189,244)"/>
<path d="M0 0 C3.3 0 6.6 0 10 0 C8.02 0.99 8.02 0.99 6 2 C6.99 2.99 7.98 3.98 9 5 C4.89198233 3.81323934 3.10551666 3.10551666 0 0 Z " fill="#313C66" transform="translate(469,240)"/>
<path d="M0 0 C0.66 0.66 1.32 1.32 2 2 C0.71186658 2.83878455 -0.58063256 3.67086783 -1.875 4.5 C-2.59429688 4.9640625 -3.31359375 5.428125 -4.0546875 5.90625 C-6 7 -6 7 -8 7 C-6.5361389 2.60841671 -4.02168662 2.12052567 0 0 Z " fill="#FCE1E1" transform="translate(522,16)"/>
<path d="M0 0 C-2.68841859 2.25245881 -4.64641875 3.88213958 -8 5 C-7.1875 2.5625 -7.1875 2.5625 -6 0 C-3 -1 -3 -1 0 0 Z " fill="#C43238" transform="translate(94,330)"/>
<path d="M0 0 C-1.28813342 0.83878455 -2.58063256 1.67086783 -3.875 2.5 C-4.59429687 2.9640625 -5.31359375 3.428125 -6.0546875 3.90625 C-8 5 -8 5 -10 5 C-10 4.34 -10 3.68 -10 3 C-9.34 3 -8.68 3 -8 3 C-8 2.34 -8 1.68 -8 1 C-4.85571151 -0.9090323 -3.47925125 -1.04523725 0 0 Z " fill="#FCE2E1" transform="translate(181,252)"/>
<path d="M0 0 C0.33 1.32 0.66 2.64 1 4 C-1.70879335 5.35439668 -4.00933268 5.06501451 -7 5 C-2.25 1.125 -2.25 1.125 0 0 Z " fill="#344171" transform="translate(483,112)"/>
<path d="M0 0 C0 0.66 0 1.32 0 2 C-0.66 2 -1.32 2 -2 2 C-2.33 2.99 -2.66 3.98 -3 5 C-5.31 5.33 -7.62 5.66 -10 6 C-2.6 0 -2.6 0 0 0 Z " fill="#C0383D" transform="translate(371,110)"/>
<path d="M0 0 C0.99 0.66 1.98 1.32 3 2 C-1.95 4.475 -1.95 4.475 -7 7 C-5.66667905 3.00003714 -3.5042173 2.16217663 0 0 Z " fill="#FCE4E2" transform="translate(410,83)"/>
<path d="M0 0 C4.23429756 1.31061591 8.07407404 2.94356259 12 5 C11.34 5.66 10.68 6.32 10 7 C8.33073546 6.02526874 6.66464358 5.04510211 5 4.0625 C4.071875 3.51722656 3.14375 2.97195312 2.1875 2.41015625 C1.465625 1.94480469 0.74375 1.47945312 0 1 C0 0.67 0 0.34 0 0 Z " fill="#BE373F" transform="translate(6,31)"/>
<path d="M0 0 C4.50802601 1.25805377 7.4912812 2.90407165 11 6 C8.03 5.505 8.03 5.505 5 5 C5 4.34 5 3.68 5 3 C3.35 2.67 1.7 2.34 0 2 C0 1.34 0 0.68 0 0 Z " fill="#BF373F" transform="translate(31,19)"/>
<path d="M0 0 C0.66 0.33 1.32 0.66 2 1 C1.67 1.99 1.34 2.98 1 4 C-0.32 4 -1.64 4 -3 4 C-3 4.66 -3 5.32 -3 6 C-3.99 5.67 -4.98 5.34 -6 5 C-4.06745228 2.9754262 -2.36841312 1.57894208 0 0 Z " fill="#FADFDF" transform="translate(87,334)"/>
<path d="M0 0 C0.33 0.99 0.66 1.98 1 3 C-3.455 4.485 -3.455 4.485 -8 6 C-5.51047079 3.33264727 -3.36591866 1.44253657 0 0 Z " fill="#FBDEDF" transform="translate(99,327)"/>
<path d="M0 0 C3.31562557 0.55260426 6.15062207 1.16825705 9 3 C9.33 3.99 9.66 4.98 10 6 C6.00499382 4.6302836 3.19990508 2.74277578 0 0 Z " fill="#FADEDC" transform="translate(468,253)"/>
<path d="M0 0 C3.77545388 1.09068668 6.47043472 1.9083091 9 5 C8.01 5.33 7.02 5.66 6 6 C6 5.34 6 4.68 6 4 C4.35 3.67 2.7 3.34 1 3 C0.67 2.01 0.34 1.02 0 0 Z " fill="#FADADA" transform="translate(112,95)"/>
<path d="M0 0 C1.32 0.33 2.64 0.66 4 1 C1.31158141 3.25245881 -0.64641875 4.88213958 -4 6 C-3.67 4.68 -3.34 3.36 -3 2 C-2.01 2 -1.02 2 0 2 C0 1.34 0 0.68 0 0 Z " fill="#C33038" transform="translate(467,77)"/>
<path d="M0 0 C3.96 1.98 3.96 1.98 8 4 C7.67 4.66 7.34 5.32 7 6 C5.0625 5.625 5.0625 5.625 3 5 C2.67 4.34 2.34 3.68 2 3 C1.01 2.34 0.02 1.68 -1 1 C-0.67 0.67 -0.34 0.34 0 0 Z " fill="#E8F0F7" transform="translate(97,17)"/>
<path d="M0 0 C0 0.99 0 1.98 0 3 C-2 4.6875 -2 4.6875 -4 6 C-4.99 5.34 -5.98 4.68 -7 4 C-4.69 2.68 -2.38 1.36 0 0 Z " fill="#33436E" transform="translate(183,289)"/>
<path d="M0 0 C2.64 0.33 5.28 0.66 8 1 C7.34 2.32 6.68 3.64 6 5 C3.98079663 3.69593116 1.98075027 2.36176581 0 1 C0 0.67 0 0.34 0 0 Z " fill="#BA3A3F" transform="translate(402,240)"/>
<path d="M0 0 C2.88437779 1.29299694 4.87219421 2.65941363 7 5 C3.42424104 5 1.94704065 3.91159393 -1 2 C-0.67 1.34 -0.34 0.68 0 0 Z " fill="#FBDDDD" transform="translate(151,88)"/>
<path d="M0 0 C2.76276177 0.52268466 5.3260876 1.10869587 8 2 C8 2.99 8 3.98 8 5 C4.62496331 3.8141763 2.35277269 2.72426311 0 0 Z " fill="#F9DCDC" transform="translate(120,71)"/>
<path d="M0 0 C5.53846154 0.61538462 5.53846154 0.61538462 7.875 2.5625 C8.431875 3.2740625 8.431875 3.2740625 9 4 C8.01 4.495 8.01 4.495 7 5 C4.5249829 3.88568235 2.32116581 2.41849022 0 1 C0 0.67 0 0.34 0 0 Z " fill="#FBDDDE" transform="translate(55,32)"/>
<path d="M0 0 C-1.75 3.875 -1.75 3.875 -4 5 C-4.99 4.34 -5.98 3.68 -7 3 C-2.25 0 -2.25 0 0 0 Z " fill="#FAE2E3" transform="translate(143,301)"/>
<path d="M0 0 C2.475 0.99 2.475 0.99 5 2 C5 2.66 5 3.32 5 4 C5.66 4 6.32 4 7 4 C7 4.66 7 5.32 7 6 C3.62496331 4.8141763 1.35277269 3.72426311 -1 1 C-0.67 0.67 -0.34 0.34 0 0 Z " fill="#FBDEDF" transform="translate(537,293)"/>
<path d="M0 0 C0.33 0.66 0.66 1.32 1 2 C0.34 2 -0.32 2 -1 2 C-1.66 3.32 -2.32 4.64 -3 6 C-3.99 5.67 -4.98 5.34 -6 5 C-2.25 1.125 -2.25 1.125 0 0 Z " fill="#E9F0F6" transform="translate(62,281)"/>
<path d="M0 0 C3.37462715 0.54723683 5.08235 1.0549 8 3 C8 3.66 8 4.32 8 5 C4.62496331 3.8141763 2.35277269 2.72426311 0 0 Z " fill="#FBDDDD" transform="translate(180,107)"/>
<path d="M0 0 C0.33 0.99 0.66 1.98 1 3 C-1.35438733 4.42944945 -2.48032433 5.08661261 -5.25 4.625 C-5.8275 4.41875 -6.405 4.2125 -7 4 C-4.69 2.68 -2.38 1.36 0 0 Z " fill="#C2373F" transform="translate(486,40)"/>
<path d="M0 0 C0.66 0.33 1.32 0.66 2 1 C0.25 3.0625 0.25 3.0625 -2 5 C-4.25 4.75 -4.25 4.75 -6 4 C-4.02 2.68 -2.04 1.36 0 0 Z " fill="#C0383F" transform="translate(507,27)"/>
<path d="M0 0 C1.31602523 0.61754259 2.62773556 1.24428742 3.9375 1.875 C4.66839844 2.22304687 5.39929688 2.57109375 6.15234375 2.9296875 C8 4 8 4 9 6 C5.625 5.25 5.625 5.25 2 4 C0.7734375 1.921875 0.7734375 1.921875 0 0 Z " fill="#BE353D" transform="translate(22,13)"/>
<path d="M0 0 C1.32 0.33 2.64 0.66 4 1 C1.31158141 3.25245881 -0.64641875 4.88213958 -4 6 C-4 5.34 -4 4.68 -4 4 C-3.34 4 -2.68 4 -2 4 C-2 3.34 -2 2.68 -2 2 C-1.34 2 -0.68 2 0 2 C0 1.34 0 0.68 0 0 Z " fill="#BF3439" transform="translate(579,9)"/>
</svg>